<svg width="38" height="38" viewBox="0 0 38 38" fill="none" xmlns="http://www.w3.org/2000/svg">
<path fill-rule="evenodd" clip-rule="evenodd" d="M28.2466 19.7468C28.2466 23.2118 27.4485 25.794 25.8537 27.4766C24.2566 29.1617 21.7947 30 18.4728 30C15.3688 30 13.016 29.1619 11.4084 27.4766C9.80319 25.7939 9 23.2538 9 19.8652C9 16.0712 9 12.2774 9 8.48338C9 8.21753 9.21925 8 9.48721 8H15.1152C15.3831 8 15.6024 8.21753 15.6024 8.48338C15.6024 12.3597 15.6024 16.2361 15.6024 20.1124C15.6024 21.4976 15.8608 22.5646 16.3861 23.3156C16.9092 24.0631 17.6578 24.4382 18.6337 24.4382C19.6147 24.4382 20.3623 24.0878 20.876 23.3825C21.3897 22.6771 21.6442 21.6367 21.6442 20.2618V18.0839H28.2466V19.7468Z" fill="#203E7A"/>
<path fill-rule="evenodd" clip-rule="evenodd" d="M21.6458 16.8133V8.50626C21.6458 8.22784 21.8754 8 22.1561 8H23.0678C23.0698 10.8359 25.3877 13.1345 28.2467 13.1345L28.2482 13.1345V16.8133H21.6458Z" fill="#203E7A"/>
<path fill-rule="evenodd" clip-rule="evenodd" d="M24.3675 8C25.4916 8 26.6157 8 27.7398 8C28.0204 8 28.2501 8.22784 28.2501 8.50626C28.2501 9.62293 28.2501 10.7396 28.2501 11.8563C26.1058 11.8563 24.3674 10.1316 24.3674 8.0042L24.3675 8Z" fill="#F4821F"/>
</svg>
