<svg width="38" height="38" viewBox="0 0 38 38" fill="none" xmlns="http://www.w3.org/2000/svg">
<path d="M26.8641 13.527C26.0425 13.2276 25.1742 13.0774 24.2998 13.0834C21.4722 13.0834 19.4753 14.5078 19.4611 16.5525C19.4435 18.0547 20.8802 18.9012 21.9671 19.4031C23.0822 19.9191 23.4551 20.2443 23.4515 20.7055C23.4445 21.4071 22.5609 21.7252 21.7391 21.7252C20.6098 21.7252 19.9931 21.5679 19.0441 21.1738L18.6924 21.0095L18.2912 23.3634C18.9787 23.6497 20.2175 23.8954 21.497 23.9166C24.503 23.9166 26.4682 22.501 26.4912 20.3256C26.5159 19.1256 25.7383 18.219 24.1019 17.4697C23.1069 16.9837 22.4902 16.6585 22.4902 16.1655C22.4902 15.729 23.0186 15.2624 24.1231 15.2624C24.8582 15.2446 25.5887 15.3826 26.2667 15.6671L26.5318 15.7855L26.933 13.5111L26.8641 13.527ZM34.2016 13.2743H31.9926C31.3051 13.2743 30.7873 13.4634 30.4869 14.1455L26.2385 23.7699H29.2445L29.8454 22.1918L33.5142 22.1953C33.6008 22.5646 33.8658 23.7699 33.8658 23.7699H36.5167L34.2016 13.2743ZM15.3947 13.1859H18.2594L16.4674 23.6868H13.6063L15.3947 13.1824V13.1859ZM8.12257 18.9736L8.41947 20.4316L11.2188 13.2743H14.2531L9.74489 23.7558H6.71762L4.2435 14.8807C4.20343 14.7344 4.10932 14.6087 3.98018 14.529C3.08844 14.0684 2.14358 13.7188 1.16675 13.4881L1.20563 13.2672H5.81634C6.44194 13.292 6.9456 13.4881 7.11348 14.1561L8.12081 18.9789L8.12257 18.9736ZM30.6672 20.0446L31.8088 17.1074C31.7947 17.1392 32.0438 16.5013 32.1887 16.1072L32.3849 17.0138L33.0476 20.0428H30.6654L30.6672 20.0446Z" fill="#1434CB"/>
</svg>
