<svg width="38" height="38" viewBox="0 0 38 38" fill="none" xmlns="http://www.w3.org/2000/svg">
<path d="M23.5692 11.1379H14.813V26.8619H23.5692V11.1379Z" fill="#FF5A00"/>
<path d="M15.3691 19C15.3677 17.4857 15.7111 15.9909 16.3733 14.6288C17.0355 13.2667 17.9991 12.0729 19.1912 11.138C17.715 9.97846 15.942 9.25736 14.0751 9.05711C12.2081 8.85687 10.3224 9.18556 8.63349 10.0056C6.94461 10.8257 5.52069 12.1041 4.52449 13.6946C3.52829 15.2851 3 17.1236 3 19C3 20.8764 3.52829 22.7149 4.52449 24.3054C5.52069 25.8959 6.94461 27.1743 8.63349 27.9944C10.3224 28.8144 12.2081 29.1431 14.0751 28.9429C15.942 28.7426 17.715 28.0215 19.1912 26.862C17.9991 25.927 17.0355 24.7333 16.3733 23.3712C15.7111 22.0091 15.3677 20.5143 15.3691 19Z" fill="#EB001B"/>
<path d="M35.3819 19C35.382 20.8763 34.8537 22.7149 33.8576 24.3054C32.8614 25.8959 31.4376 27.1743 29.7487 27.9943C28.0599 28.8144 26.1742 29.1431 24.3072 28.9429C22.4403 28.7426 20.6674 28.0215 19.1912 26.862C20.3822 25.9261 21.3451 24.7322 22.0072 23.3703C22.6693 22.0084 23.0133 20.5141 23.0133 19C23.0133 17.4859 22.6693 15.9916 22.0072 14.6297C21.3451 13.2678 20.3822 12.0739 19.1912 11.138C20.6674 9.97845 22.4403 9.25735 24.3072 9.05711C26.1742 8.85687 28.0599 9.18558 29.7487 10.0057C31.4376 10.8257 32.8614 12.1041 33.8576 13.6946C34.8537 15.2851 35.382 17.1237 35.3819 19Z" fill="#F79E1B"/>
</svg>
