<svg width="38" height="22" viewBox="0 0 38 22" fill="none" xmlns="http://www.w3.org/2000/svg">
<path fill-rule="evenodd" clip-rule="evenodd" d="M17.8425 0.952104L17.8433 0.952105C20.5632 0.954733 23.2831 0.957357 26.0029 0.941522L26.1579 0.940618L26.1597 0.940611L26.1602 0.940608C27.1362 0.93492 28.1127 0.92923 29.0889 0.916815C29.1533 0.91601 29.2173 0.922586 29.2813 0.929161C29.3045 0.931541 29.3276 0.933921 29.3508 0.93595C29.7689 0.972548 29.8776 1.30681 29.9618 1.65914C30.8465 5.36406 30.5655 9.31003 28.9938 12.7951C28.5749 13.7239 28.063 14.599 27.4971 15.4428C27.0525 16.1057 26.568 16.739 26.0381 17.3384C25.6428 17.7856 25.227 18.2127 24.7863 18.6116C23.9565 19.3625 23.0757 20.0475 22.049 20.518C21.5046 20.7675 20.9335 20.9239 20.3394 21.0074C19.7469 21.0908 19.1521 21.0899 18.5576 21.077C16.4445 21.0312 14.3311 21.0378 12.2178 21.0444H12.2176C11.0467 21.048 9.87574 21.0517 8.70483 21.0464C7.36777 21.0404 6.03068 21.0427 4.69358 21.0449H4.69265C4.3299 21.0456 3.96714 21.0462 3.60439 21.0466C3.42679 21.0468 3.25143 21.0324 3.08393 20.9779C2.7355 20.8645 2.52433 20.5593 2.50446 20.1541C2.49987 20.0602 2.50011 19.9661 2.50035 19.872L2.50046 19.8087C2.50029 13.9157 2.50024 8.02277 2.50086 2.12983C2.50086 1.96115 2.50415 1.79408 2.53728 1.62535C2.61671 1.2211 2.93802 0.980313 3.34556 0.955607C3.45361 0.949054 3.56215 0.949761 3.67062 0.95047L3.67083 0.950472C3.70463 0.950692 3.73842 0.950913 3.77219 0.950913L6.90629 0.950766L6.93317 0.950765H6.93318H6.93319C9.544 0.950663 12.1548 0.95056 14.7656 0.950124C15.7912 0.950124 16.8169 0.951114 17.8425 0.952104ZM30.7158 1.30038C30.703 1.26247 30.6902 1.22457 30.6828 1.18563C30.6485 1.00453 30.6905 0.9409 30.8419 0.9409C30.8651 0.9409 30.8907 0.942391 30.919 0.945156C31.453 0.997377 31.9244 1.19525 32.3443 1.52582C33.1389 2.15124 33.4441 3.28522 33.6274 4.23836C33.9707 6.02366 33.6197 8.00108 33.2028 9.7475C32.66 12.0207 31.7436 14.2418 30.4223 16.1751C30.3286 16.3122 30.2253 16.4426 30.1219 16.573L30.1218 16.5731L30.1218 16.5732C30.0698 16.6388 30.0178 16.7044 29.9671 16.7708C29.9392 16.8073 29.9131 16.8451 29.8871 16.8829L29.8871 16.8829C29.875 16.9004 29.8628 16.918 29.8506 16.9354C30.0547 16.8801 30.2204 16.7634 30.3765 16.6386C31.0412 16.1075 31.5356 15.4359 31.9572 14.7039C33.4775 12.064 34.3725 9.10158 34.5482 6.04591C34.5604 5.83409 34.5651 5.62262 34.5699 5.41116L34.57 5.4097C34.5722 5.31113 34.5744 5.21256 34.5774 5.11396C34.5777 5.10461 34.5774 5.09514 34.5772 5.08556C34.5761 5.04781 34.5751 5.00845 34.6074 4.96862C34.7281 5.0039 34.837 5.06302 34.9351 5.14995C36.1115 6.19252 36.3109 8.17266 36.1834 9.63621C35.8817 13.1006 33.9685 16.7985 30.8974 18.5869C30.8265 18.6281 30.755 18.6681 30.6828 18.7067C30.2085 18.9601 29.7157 19.1588 29.2084 19.3288C29.1428 19.3508 29.0772 19.373 29.0119 19.3952L28.9225 19.4255C29.3409 19.4023 29.9189 19.3294 30.5743 19.114C32.3261 18.5385 33.7218 17.239 34.6904 15.7009C34.9287 15.3226 35.1425 14.9312 35.351 14.5363L35.3517 14.5351C35.364 14.5118 35.3768 14.4876 35.4089 14.4808C35.4474 14.4816 35.4635 14.5125 35.4766 14.5429C35.9632 15.667 35.8379 16.8199 35.1518 17.8357C33.8014 19.8348 30.9484 21.0278 28.5887 21.0373C26.6806 21.0449 24.7723 21.044 22.8641 21.0432H22.8628L22.0647 21.0428C22.0506 21.0428 22.0349 21.0444 22.0188 21.046C21.957 21.052 21.8885 21.0588 21.8734 20.9822C21.8586 20.9067 21.9145 20.8934 21.9704 20.8801C21.9907 20.8753 22.0109 20.8705 22.0278 20.8627C25.3272 19.3457 27.824 16.699 29.4512 13.467C30.8653 10.6586 31.5757 7.47979 31.2985 4.33592C31.2096 3.32871 31.0228 2.32998 30.7353 1.36051C30.7294 1.34036 30.7226 1.32037 30.7158 1.30038ZM21.3517 9.73869C21.4752 9.32732 21.7281 8.96516 22.0716 8.70699C22.461 8.41473 22.9435 8.26145 23.4284 8.25008C23.9134 8.26145 24.3959 8.41473 24.7853 8.70699C25.1287 8.96516 25.3816 9.32732 25.5052 9.73869C25.8584 10.9191 25.3271 12.4252 24.0552 12.7581C23.8499 12.8118 23.639 12.8345 23.4284 12.8288C23.2179 12.8345 23.0069 12.8118 22.8016 12.7581C21.5297 12.4252 20.9984 10.9191 21.3517 9.73869ZM9.76142 8.55287L9.76009 8.55449L9.75859 8.55628L9.75437 8.56123C9.73798 8.58035 9.7146 8.60762 9.72298 8.63156C9.72911 8.64893 9.75517 8.65277 9.77986 8.65641L9.77987 8.65641C9.79422 8.65853 9.8081 8.66057 9.81733 8.66517C9.86024 8.68667 9.87753 8.72981 9.87622 8.77563C9.87514 8.8121 9.87453 9.06297 9.8736 9.44343L9.87205 10.045L8.01687 10.0341L8.01145 10.0341C7.99938 9.87999 7.99534 9.70722 8.00636 9.51923C8.01649 9.34593 8.03866 9.17338 8.07253 9.00316C8.08737 8.92865 8.10444 8.85457 8.1237 8.78107C8.13085 8.75376 8.14223 8.72435 8.15392 8.69413L8.15393 8.69412C8.17685 8.63488 8.20099 8.5725 8.1969 8.51654C8.19611 8.50522 8.19343 8.49359 8.18628 8.48472C8.1696 8.4641 8.13766 8.46748 8.11194 8.47406C7.954 8.51461 7.80046 8.59886 7.67947 8.70791C7.6423 8.74144 7.54273 8.83597 7.45251 8.99754C7.21374 9.42514 7.19505 10.0307 7.19505 10.0307C7.18298 10.4222 7.16753 11.2157 7.58464 12.0394C7.58464 12.0394 7.87699 12.6169 8.29502 12.7592C8.37761 12.7873 8.40003 12.7687 8.40714 12.7595C8.43352 12.7257 8.3928 12.6722 8.36534 12.6362L8.36533 12.6362L8.36531 12.6361C8.35884 12.6276 8.35311 12.6201 8.34917 12.614C8.31108 12.5551 8.27852 12.4927 8.25048 12.4285C8.19247 12.2955 8.15407 12.1548 8.12541 12.0129C8.03809 11.5811 7.98161 11.1441 7.99367 10.7031H9.87205V12.3606C9.87205 12.4705 9.91685 12.576 10.0182 12.6276C10.0793 12.6588 10.1483 12.6698 10.2164 12.6782C10.3354 12.6929 10.4569 12.7012 10.5746 12.6785C10.6436 12.6653 10.7123 12.6404 10.7638 12.5927C10.8466 12.5157 10.8478 12.4116 10.8478 12.3068C10.8478 11.9171 10.8495 11.5266 10.8513 11.1369C10.8532 10.6943 10.8552 10.2518 10.8546 9.80925C10.8543 9.60274 10.8529 9.39626 10.8504 9.18979C10.847 8.90947 10.7599 8.62708 10.5123 8.4698C10.4054 8.40187 10.2829 8.36466 10.1631 8.36466C10.0128 8.36466 9.86691 8.42316 9.76142 8.55287ZM6.55233 10.5434C6.56431 10.201 6.5838 9.8566 6.83064 9.56157C6.84402 9.54557 6.85681 9.52883 6.86961 9.51207L6.86963 9.51204C6.9215 9.44414 6.97357 9.37598 7.06633 9.35515C6.91445 9.80684 6.91191 10.3218 6.97242 10.7899C6.99248 10.9451 7.02609 11.0946 7.06137 11.2463C7.22326 11.9428 7.51894 12.7456 8.27702 12.9674C8.38774 12.9998 8.34649 13.0682 8.28413 13.1128C8.1574 13.2036 7.98643 13.2076 7.95764 13.2066C7.252 13.1832 6.83941 12.8795 6.83941 12.8795C6.36736 12.532 6.17015 12.0197 6.16695 11.7566C6.16616 11.6889 6.17726 11.5613 6.22119 11.423C6.23475 11.3802 6.29763 11.1818 6.35328 11.1875C6.38627 11.1909 6.40163 11.2644 6.41889 11.3469L6.42783 11.389C6.50437 11.7379 6.65453 11.9982 6.77504 12.2071C6.82019 12.2854 6.88896 12.3954 6.98673 12.5204C7.05444 12.5965 7.15743 12.6958 7.30177 12.7847C7.45768 12.8807 7.60359 12.9288 7.70659 12.954C7.57669 12.8682 7.40735 12.7386 7.23866 12.5521C7.19131 12.4997 7.03105 12.318 6.88343 12.0419C6.81769 11.919 6.52429 11.3471 6.55233 10.5434ZM20.1794 8.37568C20.1944 8.37518 20.2094 8.37468 20.2244 8.37449H20.2262C20.2748 8.37449 20.3203 8.39024 20.3617 8.41635C20.4394 8.46638 20.4727 8.53954 20.4847 8.56718C20.5035 8.60965 20.5096 8.64721 20.5131 8.66911L20.515 8.68018C20.5492 8.85255 20.5526 8.99561 20.5495 9.09198L20.5814 10.0694L20.6577 12.4073C20.6566 12.4256 20.6531 12.4512 20.643 12.4797C20.5864 12.6415 20.3811 12.7212 20.2228 12.7231C20.063 12.7252 19.8721 12.6496 19.8046 12.5028C19.8046 12.5028 19.7915 12.4727 19.7848 12.4411C19.7379 12.2159 19.7107 10.4033 19.7006 9.61349C19.2681 10.5001 18.9294 11.1626 18.7731 11.4549C18.7412 11.5151 18.6734 11.6358 18.5484 11.6769C18.5124 11.6891 18.4724 11.6955 18.4317 11.696C18.3909 11.6955 18.351 11.6891 18.3149 11.6769C18.19 11.6358 18.1221 11.5151 18.0903 11.4549C17.9339 11.1626 17.5953 10.5001 17.1627 9.61349C17.1526 10.4033 17.1254 12.2159 17.0785 12.4411C17.0719 12.4727 17.0587 12.5028 17.0587 12.5028C16.9912 12.6496 16.8004 12.7252 16.6405 12.7231C16.4822 12.7212 16.277 12.6415 16.2204 12.4797C16.2103 12.4512 16.2068 12.4256 16.2056 12.4073L16.2229 11.8766L16.2403 11.346L16.2435 11.2468L16.2436 11.2428L16.2438 11.2388L16.3138 9.09198C16.3108 8.99561 16.3142 8.85255 16.3484 8.68018L16.3494 8.67455L16.3502 8.66913C16.3538 8.64724 16.3598 8.60966 16.3786 8.56718C16.3907 8.53954 16.424 8.46638 16.5016 8.41635C16.5435 8.38994 16.5897 8.3741 16.639 8.37449C16.6539 8.37468 16.6689 8.37518 16.6839 8.37568C16.7031 8.37631 16.7222 8.37695 16.7414 8.37695L16.8124 8.37776L16.8833 8.37857C16.9124 8.37885 16.9414 8.3788 16.9704 8.37876L16.9803 8.37875L16.9837 8.37874C17.0423 8.37865 17.1011 8.37857 17.1596 8.38063C17.2422 8.38384 17.3194 8.41192 17.378 8.47371C17.4478 8.54686 17.5033 8.6513 17.5956 8.87528C17.6074 8.90339 17.6172 8.92822 17.625 8.94798L17.625 8.94819L17.625 8.94823L17.6251 8.94842L17.6285 8.95713L17.6317 8.96516C17.6666 9.04116 18.1624 10.1151 18.3494 10.4261C18.363 10.4492 18.3937 10.4988 18.4317 10.4972C18.4697 10.4988 18.5003 10.4492 18.5139 10.4261C18.7009 10.1151 19.1967 9.04116 19.2316 8.96516L19.2382 8.94845C19.246 8.92862 19.2558 8.90361 19.2677 8.87528C19.3601 8.6513 19.4155 8.54686 19.4853 8.47371C19.5439 8.41192 19.6211 8.38384 19.7038 8.38063C19.7622 8.37857 19.821 8.37865 19.8796 8.37874L19.8831 8.37875L19.893 8.37876C19.9219 8.3788 19.9511 8.37885 19.98 8.37857L20.0072 8.3783L20.051 8.37776L20.122 8.37695C20.1411 8.37695 20.1603 8.37631 20.1794 8.37568ZM14.4383 8.69883C14.4436 8.64972 14.4604 8.56841 14.5224 8.49956C14.6138 8.39801 14.75 8.383 14.8733 8.383C14.9004 8.383 14.9272 8.38372 14.9524 8.38442C15.0999 8.3885 15.2535 8.39274 15.3433 8.50636C15.4139 8.59557 15.4083 8.70572 15.4027 8.75364V11.3145C15.4027 11.5528 15.3342 11.8685 15.1058 12.1682C14.8491 12.5048 14.4846 12.6548 14.3722 12.6966C14.1445 12.7812 13.9203 12.8049 13.8517 12.8118C13.7327 12.8237 13.6314 12.8242 13.5564 12.8219C13.4815 12.8242 13.3802 12.8237 13.2612 12.8118C13.1926 12.8049 12.9684 12.7812 12.7407 12.6966C12.6283 12.6548 12.2637 12.5048 12.0071 12.1682C11.7787 11.8685 11.7102 11.5528 11.7102 11.3145V8.75364C11.7045 8.70572 11.6989 8.59557 11.7696 8.50636C11.8594 8.39274 12.0136 8.38848 12.161 8.3844C12.3011 8.38059 12.479 8.37574 12.5905 8.49956C12.6524 8.56841 12.6693 8.64972 12.6746 8.69883L12.6823 11.1456C12.6808 11.2255 12.6889 11.3759 12.7695 11.5414C12.8546 11.7163 12.9752 11.8151 13.0061 11.8396C13.0061 11.8396 13.2116 12.0018 13.4801 12.0236C13.507 12.0257 13.5353 12.0267 13.5353 12.0267C13.5423 12.027 13.5493 12.0271 13.5564 12.0272C13.5635 12.0271 13.5706 12.027 13.5776 12.0267C13.5776 12.0267 13.6058 12.0257 13.6327 12.0236C13.9013 12.0018 14.1067 11.8396 14.1067 11.8396C14.1377 11.8151 14.2583 11.7163 14.3434 11.5414C14.424 11.3759 14.432 11.2255 14.4305 11.1456L14.4357 9.53032L14.4357 9.52842L14.4383 8.69883ZM22.493 9.40331C22.1914 9.88378 22.1679 10.5179 22.2959 11.0565C22.4288 11.6154 22.8 12.2162 23.4284 12.2227C24.0568 12.2162 24.428 11.6154 24.5609 11.0565C24.6889 10.5179 24.6654 9.88378 24.3637 9.40331C24.1548 9.07037 23.7995 8.8732 23.4284 8.87039C23.0573 8.8732 22.702 9.07037 22.493 9.40331Z" fill="#C28C4B"/>
</svg>
